# xmcd
#
# Track frame offsets:
#	150
#	15890
#	32465
#	44457
#	63192
#	77090
#	91977
#	103209
#	120461
#	133003
#	145308
#	162250
#
# Disc length: 2444 seconds
#
# Revision: 0
# Processed by: cddbd v1.4PL0 Copyright (c) Steve Scherf et al.
# Submitted via: dBpowerAMP V4.0
#
DISCID=92098a0c
DTITLE=Smolar Adi - Neprilagojen
DYEAR=1994
DGENRE=Blues
TTITLE0=Neprilagojen
TTITLE1=Genocid
TTITLE2=Dvajset ljubic
TTITLE3=Spomin na maj
TTITLE4=Ko spregovoris
TTITLE5=Meni se mudi
TTITLE6=Po sluzbi
TTITLE7=Mene nihce nima rad
TTITLE8=Zur
TTITLE9=Vroce - hladno
TTITLE10=Zavod za zaposlovanje
TTITLE11=Dalec je za naju pomlad
EXTD=
EXTT0=
EXTT1=
EXTT2=
EXTT3=
EXTT4=
EXTT5=
EXTT6=
EXTT7=
EXTT8=
EXTT9=
EXTT10=
EXTT11=
PLAYORDER=
